<svg width="20" height="20" viewBox="0 0 20 20" fill="none" xmlns="http://www.w3.org/2000/svg">
  <!-- 깃발 / Flag -->
  <rect x="4" y="2" width="2" height="2" fill="currentColor"/>
  <rect x="4" y="4" width="2" height="2" fill="currentColor"/>
  <rect x="4" y="6" width="2" height="2" fill="currentColor"/>
  <rect x="4" y="8" width="2" height="2" fill="currentColor"/>
  <rect x="4" y="10" width="2" height="2" fill="currentColor"/>
  <rect x="4" y="12" width="2" height="2" fill="currentColor"/>
  <rect x="4" y="14" width="2" height="2" fill="currentColor"/>
  <rect x="4" y="16" width="2" height="2" fill="currentColor"/>
  
  <rect x="6" y="2" width="2" height="2" fill="currentColor"/>
  <rect x="8" y="2" width="2" height="2" fill="currentColor"/>
  <rect x="10" y="2" width="2" height="2" fill="currentColor"/>
  <rect x="12" y="2" width="2" height="2" fill="currentColor"/>
  <rect x="14" y="2" width="2" height="2" fill="currentColor"/>
  
  <rect x="14" y="4" width="2" height="2" fill="currentColor"/>
  <rect x="12" y="6" width="2" height="2" fill="currentColor"/>
  <rect x="10" y="8" width="2" height="2" fill="currentColor"/>
  
  <rect x="6" y="4" width="2" height="2" fill="currentColor"/>
  <rect x="8" y="4" width="2" height="2" fill="currentColor"/>
  <rect x="10" y="4" width="2" height="2" fill="currentColor"/>
  <rect x="12" y="4" width="2" height="2" fill="currentColor"/>
  
  <rect x="6" y="6" width="2" height="2" fill="currentColor"/>
  <rect x="8" y="6" width="2" height="2" fill="currentColor"/>
  <rect x="10" y="6" width="2" height="2" fill="currentColor"/>
  
  <rect x="6" y="8" width="2" height="2" fill="currentColor"/>
  <rect x="8" y="8" width="2" height="2" fill="currentColor"/>
</svg>
