<svg width="40" height="40" viewBox="0 0 40 40" fill="none" xmlns="http://www.w3.org/2000/svg">
  <!-- 마이크 헤드 -->
  <rect x="14" y="8" width="4" height="2" fill="currentColor"/>
  <rect x="22" y="8" width="4" height="2" fill="currentColor"/>
  <rect x="12" y="10" width="2" height="2" fill="currentColor"/>
  <rect x="26" y="10" width="2" height="2" fill="currentColor"/>
  <rect x="10" y="12" width="2" height="2" fill="currentColor"/>
  <rect x="28" y="12" width="2" height="2" fill="currentColor"/>
  <rect x="10" y="14" width="2" height="2" fill="currentColor"/>
  <rect x="28" y="14" width="2" height="2" fill="currentColor"/>
  <rect x="10" y="16" width="2" height="2" fill="currentColor"/>
  <rect x="28" y="16" width="2" height="2" fill="currentColor"/>
  <rect x="10" y="18" width="2" height="2" fill="currentColor"/>
  <rect x="28" y="18" width="2" height="2" fill="currentColor"/>
  <rect x="12" y="20" width="2" height="2" fill="currentColor"/>
  <rect x="26" y="20" width="2" height="2" fill="currentColor"/>
  <rect x="14" y="22" width="4" height="2" fill="currentColor"/>
  <rect x="22" y="22" width="4" height="2" fill="currentColor"/>
  
  <!-- 마이크 중앙 채우기 -->
  <rect x="14" y="10" width="12" height="2" fill="currentColor"/>
  <rect x="12" y="12" width="16" height="2" fill="currentColor"/>
  <rect x="12" y="14" width="16" height="2" fill="currentColor"/>
  <rect x="12" y="16" width="16" height="2" fill="currentColor"/>
  <rect x="12" y="18" width="16" height="2" fill="currentColor"/>
  <rect x="14" y="20" width="12" height="2" fill="currentColor"/>
  
  <!-- 마이크 스탠드 -->
  <rect x="18" y="24" width="4" height="2" fill="currentColor"/>
  <rect x="18" y="26" width="4" height="2" fill="currentColor"/>
  
  <!-- 마이크 받침대 -->
  <rect x="12" y="28" width="2" height="2" fill="currentColor"/>
  <rect x="14" y="28" width="2" height="2" fill="currentColor"/>
  <rect x="16" y="28" width="2" height="2" fill="currentColor"/>
  <rect x="18" y="28" width="2" height="2" fill="currentColor"/>
  <rect x="20" y="28" width="2" height="2" fill="currentColor"/>
  <rect x="22" y="28" width="2" height="2" fill="currentColor"/>
  <rect x="24" y="28" width="2" height="2" fill="currentColor"/>
  <rect x="26" y="28" width="2" height="2" fill="currentColor"/>
  
  <rect x="10" y="30" width="2" height="2" fill="currentColor"/>
  <rect x="12" y="30" width="2" height="2" fill="currentColor"/>
  <rect x="14" y="30" width="2" height="2" fill="currentColor"/>
  <rect x="16" y="30" width="2" height="2" fill="currentColor"/>
  <rect x="18" y="30" width="2" height="2" fill="currentColor"/>
  <rect x="20" y="30" width="2" height="2" fill="currentColor"/>
  <rect x="22" y="30" width="2" height="2" fill="currentColor"/>
  <rect x="24" y="30" width="2" height="2" fill="currentColor"/>
  <rect x="26" y="30" width="2" height="2" fill="currentColor"/>
  <rect x="28" y="30" width="2" height="2" fill="currentColor"/>
</svg>
