<svg width="20" height="20" viewBox="0 0 20 20" fill="none" xmlns="http://www.w3.org/2000/svg">
  <!-- 위젯 / Widget -->
  <rect x="2" y="2" width="2" height="2" fill="currentColor"/>
  <rect x="4" y="2" width="2" height="2" fill="currentColor"/>
  <rect x="6" y="2" width="2" height="2" fill="currentColor"/>
  <rect x="2" y="4" width="2" height="2" fill="currentColor"/>
  <rect x="6" y="4" width="2" height="2" fill="currentColor"/>
  <rect x="2" y="6" width="2" height="2" fill="currentColor"/>
  <rect x="4" y="6" width="2" height="2" fill="currentColor"/>
  <rect x="6" y="6" width="2" height="2" fill="currentColor"/>
  
  <rect x="12" y="2" width="2" height="2" fill="currentColor"/>
  <rect x="14" y="2" width="2" height="2" fill="currentColor"/>
  <rect x="16" y="2" width="2" height="2" fill="currentColor"/>
  <rect x="12" y="4" width="2" height="2" fill="currentColor"/>
  <rect x="16" y="4" width="2" height="2" fill="currentColor"/>
  <rect x="12" y="6" width="2" height="2" fill="currentColor"/>
  <rect x="14" y="6" width="2" height="2" fill="currentColor"/>
  <rect x="16" y="6" width="2" height="2" fill="currentColor"/>
  
  <rect x="2" y="12" width="2" height="2" fill="currentColor"/>
  <rect x="4" y="12" width="2" height="2" fill="currentColor"/>
  <rect x="6" y="12" width="2" height="2" fill="currentColor"/>
  <rect x="2" y="14" width="2" height="2" fill="currentColor"/>
  <rect x="6" y="14" width="2" height="2" fill="currentColor"/>
  <rect x="2" y="16" width="2" height="2" fill="currentColor"/>
  <rect x="4" y="16" width="2" height="2" fill="currentColor"/>
  <rect x="6" y="16" width="2" height="2" fill="currentColor"/>
  
  <rect x="12" y="12" width="2" height="2" fill="currentColor"/>
  <rect x="14" y="12" width="2" height="2" fill="currentColor"/>
  <rect x="16" y="12" width="2" height="2" fill="currentColor"/>
  <rect x="12" y="14" width="2" height="2" fill="currentColor"/>
  <rect x="16" y="14" width="2" height="2" fill="currentColor"/>
  <rect x="12" y="16" width="2" height="2" fill="currentColor"/>
  <rect x="14" y="16" width="2" height="2" fill="currentColor"/>
  <rect x="16" y="16" width="2" height="2" fill="currentColor"/>
</svg>
